HIERARCHY
ROOT root
{
  OFFSET 0 95.9893 0
  CHANNELS 6 Xposition Yposition Zposition Zrotation Xrotation Yrotation
  JOINT torso_1
  {
    OFFSET 0 5.22546 -1.18466
    CHANNELS 6 Xposition Yposition Zposition Zrotation Xrotation Yrotation
    JOINT torso_2
    {
      OFFSET 0 5.77894 1.10239
      CHANNELS 6 Xposition Yposition Zposition Zrotation Xrotation Yrotation
      JOINT torso_3
      {
        OFFSET -1.0557e-17 6.16289 0.118334
        CHANNELS 6 Xposition Yposition Zposition Zrotation Xrotation Yrotation
        JOINT torso_4
        {
          OFFSET -1.13649e-17 6.69386 -0.456341
          CHANNELS 6 Xposition Yposition Zposition Zrotation Xrotation Yrotation
          JOINT torso_5
          {
            OFFSET -2.02997e-17 7.82529 -1.54945
            CHANNELS 6 Xposition Yposition Zposition Zrotation Xrotation Yrotation
            JOINT torso_6
            {
              OFFSET -2.60628e-17 9.77186 -0.940923
              CHANNELS 6 Xposition Yposition Zposition Zrotation Xrotation Yrotation
              JOINT torso_7
              {
                OFFSET -2.98794e-17 10.8563 1.62248
                CHANNELS 6 Xposition Yposition Zposition Zrotation Xrotation Yrotation
                JOINT neck_1
                {
                  OFFSET -1.32927e-17 4.92478 0.736013
                  CHANNELS 6 Xposition Yposition Zposition Zrotation Xrotation Yrotation
                  JOINT neck_2
                  {
                    OFFSET -1.86396e-17 4.96043 0.433981
                    CHANNELS 6 Xposition Yposition Zposition Zrotation Xrotation Yrotation
                    JOINT head
                    {
                      OFFSET -2.06766e-17 4.97002 0.787173
                      CHANNELS 6 Xposition Yposition Zposition Zrotation Xrotation Yrotation
                      End Site
                      {
                        OFFSET 0 0.1 0
                      }
                    }
                  }
                }
                JOINT l_shoulder
                {
                  OFFSET 1.26863 -7.82717 7.75148
                  CHANNELS 6 Xposition Yposition Zposition Zrotation Xrotation Yrotation
                  JOINT l_up_arm
                  {
                    OFFSET 13.3291 3.34342 -3.36319
                    CHANNELS 6 Xposition Yposition Zposition Zrotation Xrotation Yrotation
                    JOINT l_low_arm
                    {
                      OFFSET 30.0522 0.0615366 0.141
                      CHANNELS 6 Xposition Yposition Zposition Zrotation Xrotation Yrotation
                      JOINT l_hand
                      {
                        OFFSET 24.9344 0.0510561 0.116988
                        CHANNELS 6 Xposition Yposition Zposition Zrotation Xrotation Yrotation
                        End Site
                        {
                          OFFSET 0.1 0 0
                        }
                      }
                    }
                  }
                }
                JOINT r_shoulder
                {
                  OFFSET -1.26863 -7.82715 7.75138
                  CHANNELS 6 Xposition Yposition Zposition Zrotation Xrotation Yrotation
                  JOINT r_up_arm
                  {
                    OFFSET -13.3291 3.34342 -3.36319
                    CHANNELS 6 Xposition Yposition Zposition Zrotation Xrotation Yrotation
                    JOINT r_low_arm
                    {
                      OFFSET -30.0522 0.0615366 0.141
                      CHANNELS 6 Xposition Yposition Zposition Zrotation Xrotation Yrotation
                      JOINT r_hand
                      {
                        OFFSET -24.9344 0.0510559 0.116988
                        CHANNELS 6 Xposition Yposition Zposition Zrotation Xrotation Yrotation
                        End Site
                        {
                          OFFSET -0.1 0 0
                        }
                      }
                    }
                  }
                }
              }
            }
          }
        }
      }
    }
  }
  JOINT l_up_leg
  {
    OFFSET 9.50369 -4.32711 2.09145
    CHANNELS 6 Xposition Yposition Zposition Zrotation Xrotation Yrotation
    JOINT l_low_leg
    {
      OFFSET -0.876987 -39.8926 -0.674123
      CHANNELS 6 Xposition Yposition Zposition Zrotation Xrotation Yrotation
      JOINT l_foot
      {
        OFFSET -2.39345 -41.5694 -6.22357
        CHANNELS 6 Xposition Yposition Zposition Zrotation Xrotation Yrotation
        JOINT l_toes
        {
          OFFSET 0.801613 -10.1701 12.8571
          CHANNELS 6 Xposition Yposition Zposition Zrotation Xrotation Yrotation
          End Site
          {
            OFFSET 0 0 0.1
          }
        }
      }
    }
  }
  JOINT r_up_leg
  {
    OFFSET -9.50369 -4.32711 2.09145
    CHANNELS 6 Xposition Yposition Zposition Zrotation Xrotation Yrotation
    JOINT r_low_leg
    {
      OFFSET 0.876987 -39.8926 -0.674123
      CHANNELS 6 Xposition Yposition Zposition Zrotation Xrotation Yrotation
      JOINT r_foot
      {
        OFFSET 2.39345 -41.5694 -6.22357
        CHANNELS 6 Xposition Yposition Zposition Zrotation Xrotation Yrotation
        JOINT r_toes
        {
          OFFSET -0.801613 -10.1701 12.8571
          CHANNELS 6 Xposition Yposition Zposition Zrotation Xrotation Yrotation
          End Site
          {
            OFFSET 0 0 0.1
          }
        }
      }
    }
  }
}
MOTION
Frames: 6
Frame Time: 0.02
0 95.9893 0 -0 0 -0 0 5.22546 -1.18466 -0 0 -0 0 5.77894 1.10239 -0 0 -0 -1.0557e-17 6.16289 0.118334 -0 0 -0 -1.13649e-17 6.69386 -0.456341 -0 0 -0 -2.02997e-17 7.82529 -1.54945 -0 0 -0 -2.60628e-17 9.77186 -0.940923 -0 0 -0 -2.98794e-17 10.8563 1.62248 -0 0 -0 -1.32927e-17 4.92478 0.736013 -0 0 -0 -1.86396e-17 4.96043 0.433981 -0 0 -0 -2.06766e-17 4.97002 0.787173 -0 0 -0 1.26863 -7.82717 7.75148 -0 0 -0 13.3291 3.34342 -3.36319 -0 0 -0 30.0522 0.0615366 0.141 -0 0 -0 24.9344 0.0510561 0.116988 -0 0 -0 -1.26863 -7.82715 7.75138 -0 0 -0 -13.3291 3.34342 -3.36319 -0 0 -0 -30.0522 0.0615366 0.141 -0 0 -0 -24.9344 0.0510559 0.116988 -0 0 -0 9.50369 -4.32711 2.09145 -0 0 -0 -0.876987 -39.8926 -0.674123 -0 0 -0 -2.39345 -41.5694 -6.22357 -0 0 -0 0.801613 -10.1701 12.8571 -0 0 -0 -9.50369 -4.32711 2.09145 -0 0 -0 0.876987 -39.8926 -0.674123 -0 0 -0 2.39345 -41.5694 -6.22357 -0 0 -0 -0.801613 -10.1701 12.8571 -0 0 -0 
15.6801 95.651 -68.4304 1.753 -1.68673 -26.6303 0 5.22546 -1.18466 -1.03659 0.0165405 0.18733 0 5.77894 1.10239 -1.01219 0.215984 -0.0397599 -1.0557e-17 6.16289 0.118334 -0.784791 0.393633 -0.0228024 -1.13649e-17 6.69386 -0.456341 -0.54986 0.596787 -0.0424394 -2.02997e-17 7.82529 -1.54945 -0.308693 0.472459 0.0359429 -2.60628e-17 9.77186 -0.940923 -0.00585476 0.375099 -0.0561429 -2.98794e-17 10.8563 1.62248 0.00675014 0.127615 -0.00981285 -1.32927e-17 4.92478 0.736013 3.06423 -8.62243 10.5061 -1.86396e-17 4.96043 0.433981 -1.36486 -0.775479 4.25057 -2.06766e-17 4.97002 0.787173 -1.53934 2.90802 -2.13273 1.26863 -7.82717 7.75148 -2.94565 2.66298 -3.64523 13.3291 3.34342 -3.36319 -82.2599 -5.57883 1.35401 30.0522 0.0615366 0.141 0.787159 -0.0218716 -3.79672 24.9344 0.0510561 0.116988 -0.478245 -5.49206 -5.61928 -1.26863 -7.82715 7.75138 8.48608 6.32711 4.09569 -13.3291 3.34342 -3.36319 79.2697 12.1333 2.95965 -30.0522 0.0615366 0.141 -0.913683 -0.030456 4.40743 -24.9344 0.0510559 0.116988 0.444461 -29.1098 2.11603 9.50369 -4.32711 2.09145 4.92807 -1.86127 -23.2531 -0.876987 -39.8926 -0.674123 0.79059 -2.94211 0.0716776 -2.39345 -41.5694 -6.22357 -6.78258 3.71627 15.894 0.801613 -10.1701 12.8571 -7.45443e-16 -8.32411e-16 4.96962e-17 -9.50369 -4.32711 2.09145 -10.1397 5.64317 7.04234 0.876987 -39.8926 -0.674123 -0.00452414 -0.0168816 -0.000294833 2.39345 -41.5694 -6.22357 3.77866 -2.07315 -16.0976 -0.801613 -10.1701 12.8571 1.98785e-16 -5.96354e-16 -1.27719e-14 
15.6712 95.6389 -68.4848 1.76525 -1.71689 -26.5802 0 5.22546 -1.18466 -1.05263 0.0427744 0.167798 0 5.77894 1.10239 -1.02257 0.241654 -0.063908 -1.0557e-17 6.16289 0.118334 -0.79205 0.417249 -0.0477325 -1.13649e-17 6.69386 -0.456341 -0.554065 0.620533 -0.0686388 -2.02997e-17 7.82529 -1.54945 -0.315838 0.488118 0.0102562 -2.60628e-17 9.77186 -0.940923 -0.0177266 0.391952 -0.0799795 -2.98794e-17 10.8563 1.62248 0.0066655 0.126862 -0.0101556 -1.32927e-17 4.92478 0.736013 3.0946 -8.67061 10.6061 -1.86396e-17 4.96043 0.433981 -1.39843 -0.790587 4.29237 -2.06766e-17 4.97002 0.787173 -1.5456 2.93085 -2.17719 1.26863 -7.82717 7.75148 -2.92637 2.63406 -3.67121 13.3291 3.34342 -3.36319 -82.1721 -6.04393 1.33199 30.0522 0.0615366 0.141 0.760162 -0.0202505 -3.66635 24.9344 0.0510561 0.116988 -0.382992 -5.2304 -5.62716 -1.26863 -7.82715 7.75138 8.48045 6.32431 4.12502 -13.3291 3.34342 -3.36319 79.1289 11.8591 2.99325 -30.0522 0.0615366 0.141 -0.878209 -0.0279596 4.23602 -24.9344 0.0510559 0.116988 0.424312 -29.1858 2.03294 9.50369 -4.32711 2.09145 4.93287 -1.85717 -23.3304 -0.876987 -39.8926 -0.674123 0.800075 -2.97728 0.0727815 -2.39345 -41.5694 -6.22357 -6.82677 3.72846 15.8955 0.801613 -10.1701 12.8571 4.47266e-16 -7.82715e-16 3.05504e-33 -9.50369 -4.32711 2.09145 -10.1419 5.68204 7.07488 0.876987 -39.8926 -0.674123 -0.0143908 -0.0536972 -0.000943532 2.39345 -41.5694 -6.22357 3.73303 -2.1329 -16.0895 -0.801613 -10.1701 12.8571 -5.96354e-16 -5.59082e-16 -1.27471e-14 
15.6515 95.6296 -68.5343 1.73855 -1.7228 -26.5463 0 5.22546 -1.18466 -1.05188 0.0645425 0.145616 0 5.77894 1.10239 -1.01871 0.26339 -0.0882811 -1.0557e-17 6.16289 0.118334 -0.788479 0.436827 -0.0726348 -1.13649e-17 6.69386 -0.456341 -0.550817 0.638577 -0.0944997 -2.02997e-17 7.82529 -1.54945 -0.318936 0.499942 -0.0163169 -2.60628e-17 9.77186 -0.940923 -0.0294003 0.405669 -0.104628 -2.98794e-17 10.8563 1.62248 0.00654814 0.126274 -0.0104731 -1.32927e-17 4.92478 0.736013 3.1279 -8.73742 10.6976 -1.86396e-17 4.96043 0.433981 -1.43083 -0.784475 4.33006 -2.06766e-17 4.97002 0.787173 -1.55989 2.97717 -2.17635 1.26863 -7.82717 7.75148 -2.93582 2.6161 -3.70518 13.3291 3.34342 -3.36319 -82.0636 -6.58038 1.33636 30.0522 0.0615366 0.141 0.732556 -0.0186565 -3.53306 24.9344 0.0510561 0.116988 -0.278984 -4.92416 -5.62887 -1.26863 -7.82715 7.75138 8.48861 6.33502 4.15997 -13.3291 3.34342 -3.36319 78.9783 11.5639 3.00511 -30.0522 0.0615366 0.141 -0.844177 -0.0256648 4.0716 -24.9344 0.0510559 0.116988 0.384531 -29.2341 1.93501 9.50369 -4.32711 2.09145 4.98726 -1.8494 -23.3715 -0.876987 -39.8926 -0.674123 0.807589 -3.00514 0.0736601 -2.39345 -41.5694 -6.22357 -6.84543 3.71986 15.8937 0.801613 -10.1701 12.8571 -3.47873e-16 -8.07563e-16 2.48481e-17 -9.50369 -4.32711 2.09145 -10.0939 5.69889 7.12518 0.876987 -39.8926 -0.674123 -0.0168868 -0.0630105 -0.00110864 2.39345 -41.5694 -6.22357 3.69045 -2.16676 -16.084 -0.801613 -10.1701 12.8571 9.93923e-16 -6.33626e-16 -1.28092e-14 
15.5955 95.6437 -68.5642 1.73262 -1.71115 -26.5262 0 5.22546 -1.18466 -1.05767 0.0421164 0.125906 0 5.77894 1.10239 -1.01945 0.256315 -0.111167 -1.0557e-17 6.16289 0.118334 -0.787736 0.443547 -0.0962618 -1.13649e-17 6.69386 -0.456341 -0.548649 0.670349 -0.119085 -2.02997e-17 7.82529 -1.54945 -0.321483 0.540201 -0.041643 -2.60628e-17 9.77186 -0.940923 -0.0388283 0.456892 -0.128695 -2.98794e-17 10.8563 1.62248 0.00644477 0.125395 -0.0108504 -1.32927e-17 4.92478 0.736013 3.1623 -8.81052 10.7776 -1.86396e-17 4.96043 0.433981 -1.44239 -0.783106 4.36423 -2.06766e-17 4.97002 0.787173 -1.58494 3.01131 -2.14221 1.26863 -7.82717 7.75148 -2.98983 2.57867 -3.72668 13.3291 3.34342 -3.36319 -81.9024 -7.15009 1.34369 30.0522 0.0615366 0.141 0.702505 -0.0169946 -3.38798 24.9344 0.0510561 0.116988 -0.188998 -4.57625 -5.64302 -1.26863 -7.82715 7.75138 8.5152 6.32158 4.17945 -13.3291 3.34342 -3.36319 78.8217 11.2178 3.02056 -30.0522 0.0615366 0.141 -0.809077 -0.0234007 3.90206 -24.9344 0.0510559 0.116988 0.337732 -29.2418 1.83571 9.50369 -4.32711 2.09145 5.04776 -1.82247 -23.396 -0.876987 -39.8926 -0.674123 0.83076 -3.09103 0.0763918 -2.39345 -41.5694 -6.22357 -6.90626 3.82081 15.9047 0.801613 -10.1701 12.8571 -1.14301e-15 -8.44835e-16 6.21202e-17 -9.50369 -4.32711 2.09145 -10.0425 5.71239 7.20744 0.876987 -39.8926 -0.674123 -0.0262471 -0.0979346 -0.00173139 2.39345 -41.5694 -6.22357 3.67019 -2.11941 -16.0794 -0.801613 -10.1701 12.8571 -1.39149e-15 -5.34234e-16 -1.27098e-14 
15.5442 95.6589 -68.5947 1.72332 -1.64933 -26.5063 0 5.22546 -1.18466 -1.05765 -0.0108604 0.105456 0 5.77894 1.10239 -1.01487 0.228658 -0.134288 -1.0557e-17 6.16289 0.118334 -0.783117 0.438655 -0.120309 -1.13649e-17 6.69386 -0.456341 -0.544049 0.704269 -0.144368 -2.02997e-17 7.82529 -1.54945 -0.323393 0.591651 -0.0681039 -2.60628e-17 9.77186 -0.940923 -0.0498692 0.523256 -0.153601 -2.98794e-17 10.8563 1.62248 0.00631531 0.124397 -0.0112646 -1.32927e-17 4.92478 0.736013 3.2003 -8.90101 10.8698 -1.86396e-17 4.96043 0.433981 -1.46514 -0.789173 4.4044 -2.06766e-17 4.97002 0.787173 -1.59339 3.04739 -2.12123 1.26863 -7.82717 7.75148 -3.0632 2.5368 -3.73125 13.3291 3.34342 -3.36319 -81.7255 -7.70208 1.35501 30.0522 0.0615366 0.141 0.674274 -0.0155029 -3.25171 24.9344 0.0510561 0.116988 -0.0917308 -4.21405 -5.66102 -1.26863 -7.82715 7.75138 8.53857 6.29438 4.17663 -13.3291 3.34342 -3.36319 78.6625 10.8902 3.02667 -30.0522 0.0615366 0.141 -0.777077 -0.0214274 3.74751 -24.9344 0.0510559 0.116988 0.318466 -29.2615 1.75776 9.50369 -4.32711 2.09145 5.13301 -1.83848 -23.4123 -0.876987 -39.8926 -0.674123 0.855404 -3.18235 0.079335 -2.39345 -41.5694 -6.22357 -6.97175 3.90531 15.9151 0.801613 -10.1701 12.8571 -1.54058e-15 -8.57259e-16 8.69683e-17 -9.50369 -4.32711 2.09145 -9.97172 5.66856 7.31014 0.876987 -39.8926 -0.674123 -0.0307324 -0.114669 -0.00203182 2.39345 -41.5694 -6.22357 3.66693 -2.06576 -16.0763 -0.801613 -10.1701 12.8571 5.96354e-16 -6.21202e-16 -1.27968e-14 
